<svg width="24" height="25" viewBox="0 0 24 25" fill="none" xmlns="http://www.w3.org/2000/svg">
<g clip-path="url(#clip0_1538_13725)">
<path d="M12 0.75C5.3724 0.75 0 6.1224 0 12.75C0 19.3776 5.3724 24.75 12 24.75C18.6276 24.75 24 19.3776 24 12.75C24 6.1224 18.6276 0.75 12 0.75Z" fill="url(#paint0_linear_1538_13725)"/>
<path d="M13.7281 17.6078H16.9846L17.4961 14.2996H13.7281V12.4914C13.7281 11.1173 14.1773 9.89861 15.4627 9.89861H17.5282V7.01199C17.1652 6.96292 16.3976 6.85596 14.9474 6.85596C11.9186 6.85596 10.1431 8.4553 10.1431 12.0994V14.3003H7.0293V17.6084H10.1424V26.7012C10.759 26.793 11.3838 26.856 12.0249 26.856C12.6044 26.856 13.17 26.8031 13.7281 26.7276V17.6078Z" fill="white"/>
</g>
<defs>
<linearGradient id="paint0_linear_1538_13725" x1="3.5958" y1="4.3458" x2="21.969" y2="22.719" gradientUnits="userSpaceOnUse">
<stop stop-color="#2AA4F4"/>
<stop offset="1" stop-color="#007AD9"/>
</linearGradient>
<clipPath id="clip0_1538_13725">
<rect width="24" height="24" fill="white" transform="translate(0 0.75)"/>
</clipPath>
</defs>
</svg>
