<svg width="20" height="21" viewBox="0 0 20 21" fill="none" xmlns="http://www.w3.org/2000/svg">
<path fill-rule="evenodd" clip-rule="evenodd" d="M14.6026 6.36325V7.64103C16.0379 8.08904 17.0837 9.38836 17.0837 10.9402V15.0543C17.0837 16.9756 15.4909 18.5332 13.5272 18.5332H6.47432C4.50979 18.5332 2.91699 16.9756 2.91699 15.0543V10.9402C2.91699 9.38836 3.96362 8.08904 5.39806 7.64103V6.36325C5.40653 3.8789 7.46421 1.86658 9.98763 1.86658C12.5449 1.86658 14.6026 3.8789 14.6026 6.36325ZM10.0046 3.31578C11.7235 3.31578 13.1207 4.68217 13.1207 6.36325V7.46133H6.87993V6.34669C6.8884 4.67389 8.28559 3.31578 10.0046 3.31578ZM10.7413 13.9124C10.7413 14.3181 10.411 14.6411 9.99609 14.6411C9.58964 14.6411 9.25939 14.3181 9.25939 13.9124V12.0739C9.25939 11.6764 9.58964 11.3535 9.99609 11.3535C10.411 11.3535 10.7413 11.6764 10.7413 12.0739V13.9124Z" fill="#212121"/>
</svg>
