<svg width="14" height="14" viewBox="0 0 14 14" fill="none" xmlns="http://www.w3.org/2000/svg">
<path d="M13.9257 6.63196C13.0692 4.90225 11.5964 3.55544 9.79715 2.85695C7.99781 2.15836 6.00213 2.15836 4.20284 2.85695C2.40362 3.55553 0.930782 4.90225 0.0743399 6.63196C-0.02478 6.83032 -0.02478 7.06361 0.0743399 7.26197C0.930782 8.99168 2.40362 10.3385 4.20284 11.037C6.00219 11.7356 7.99787 11.7356 9.79715 11.037C11.5964 10.3384 13.0692 8.99168 13.9257 7.26197C14.0248 7.06361 14.0248 6.83032 13.9257 6.63196ZM6.99985 9.06914C6.43699 9.06914 5.89721 8.84555 5.4993 8.44753C5.10128 8.04962 4.87769 7.50984 4.87769 6.94698C4.87769 6.38412 5.10128 5.84434 5.4993 5.44643C5.89721 5.04841 6.43699 4.82482 6.99985 4.82482C7.56271 4.82482 8.10249 5.04841 8.5004 5.44643C8.89842 5.84434 9.12201 6.38412 9.12201 6.94698C9.12201 7.50984 8.89842 8.04962 8.5004 8.44753C8.10249 8.84555 7.56271 9.06914 6.99985 9.06914Z" fill="#75829B"/>
</svg>
