<svg width="20" height="21" viewBox="0 0 20 21" fill="none" xmlns="http://www.w3.org/2000/svg">
<path fill-rule="evenodd" clip-rule="evenodd" d="M8.16972 12.9104C8.69011 13.2632 9.32434 13.4765 9.99923 13.4765C11.7881 13.4765 13.2436 12.0079 13.2436 10.203C13.2436 9.52204 13.0321 8.88211 12.6825 8.35703L11.7962 9.2513C11.9426 9.53024 12.0239 9.85841 12.0239 10.203C12.0239 11.327 11.1132 12.2458 9.99923 12.2458C9.65772 12.2458 9.33247 12.1638 9.05601 12.0161L8.16972 12.9104ZM15.3577 5.65784C16.5367 6.7408 17.5368 8.20115 18.2849 9.95686C18.3499 10.1127 18.3499 10.2932 18.2849 10.4409C16.5448 14.5266 13.4468 16.9715 9.99923 16.9715H9.9911C8.42178 16.9715 6.91752 16.4546 5.59214 15.5111L4.0147 17.1028C3.89273 17.2258 3.73824 17.2832 3.58375 17.2832C3.42926 17.2832 3.26663 17.2258 3.1528 17.1028C2.94952 16.8976 2.91699 16.5695 3.07962 16.3316L3.10401 16.2987L15.13 4.16467L15.13 4.16466C15.1463 4.14826 15.1625 4.13185 15.1706 4.11544L15.1706 4.11544C15.1869 4.09903 15.2032 4.08262 15.2113 4.06622L15.9756 3.29502C16.2196 3.0571 16.6017 3.0571 16.8375 3.29502C17.0815 3.53294 17.0815 3.92675 16.8375 4.16467L15.3577 5.65784ZM6.74896 10.2062C6.74896 10.4195 6.77336 10.6328 6.80588 10.8297L3.79735 13.8653C2.98424 12.9136 2.27683 11.765 1.71578 10.4441C1.65073 10.2964 1.65073 10.1159 1.71578 9.96006C3.45585 5.87435 6.55381 3.43769 9.99329 3.43769H10.0014C11.1642 3.43769 12.2944 3.71664 13.3352 4.24171L10.6194 6.98192C10.4242 6.9491 10.2128 6.92449 10.0014 6.92449C8.20444 6.92449 6.74896 8.39305 6.74896 10.2062Z" fill="#9E9E9E"/>
</svg>
