<svg width="683" height="683" viewBox="0 0 683 683" fill="none" xmlns="http://www.w3.org/2000/svg">
<path d="M329.333 12V24H341.333H353.333V12V-1.2517e-06H341.333H329.333V12Z" fill="#9FA3AF"/>
<path d="M329.333 176.667V306.667H506H682.667V176.667V46.6666H506H329.333V176.667ZM410.667 106V117.333H400H389.333V106V94.6666H400H410.667V106ZM481.333 106V117.333H470.667H460V106V94.6666H470.667H481.333V106ZM552 106V117.333H541.333H530.667V106V94.6666H541.333H552V106ZM622.667 106V117.333H612H601.333V106V94.6666H612H622.667V106ZM588 177.333V189.333H613.867C640.8 189.333 644.933 190 650.533 195.067C656.8 200.8 658.667 207.333 658.667 223.867C658.667 242.133 656.267 248.667 647.6 254.4C642.267 258 642 258 615.067 258.4L588 258.8V270.133V281.333H576.667H565.333V270V258.667H487.467C440.133 258.667 406.933 258.133 402.533 257.333C373.333 251.733 353.333 226.4 353.333 194.933V189.333H459.333H565.333V177.333V165.333H576.667H588V177.333Z" fill="#9FA3AF"/>
<path d="M378.667 213.067C378.667 216.4 385.467 225.6 390.4 229.2C400 236 399.867 236 485.467 236H565.333V223.333V210.667H472C382.133 210.667 378.667 210.8 378.667 213.067Z" fill="#9FA3AF"/>
<path d="M588 223.333V236H612H636V223.333V210.667H612H588V223.333Z" fill="#9FA3AF"/>
<path d="M109.467 96.2667C103.2 99.6 101.467 102 97.2 113.6C93.8666 123.2 83.4666 134.933 74.2666 139.467C70.6666 141.333 61.3333 144 53.6 145.467C36.9333 148.667 29.2 152.267 21.7333 160.4C14.6666 168.133 13.6 170.267 5.99998 193.067C0.133313 211.067 -0.266687 212.8 0.266646 223.733C0.666646 234 1.33331 236.8 6.53331 248C17.2 271.333 23.4666 292.533 27.3333 318.667C30 336.667 33.6 348.8 40.2666 361.733C46.4 373.467 59.8666 388.8 72.5333 398.267C83.4666 406.533 91.0666 413.867 98 422.8C111.067 439.6 117.333 453.467 122.8 477.6C124.933 486.933 128.133 497.733 130.133 501.467C134.667 510.667 143.867 520.267 155.467 528C165.867 535.067 176.8 546.4 182.267 555.6C189.067 567.333 192 578.667 199.333 623.067C203.467 647.467 207.333 668.933 208.133 671.067C208.933 673.067 211.733 676.533 214.267 678.667C218.133 682.133 219.867 682.667 226.4 682.667C233.733 682.667 235.067 682 270.133 662C290.133 650.667 309.067 640.4 312.267 639.2C320.533 636.133 336.4 636.133 345.2 639.2C349.2 640.533 364.933 650 380.533 660.4C396 670.667 411.333 679.867 414.533 680.933C423.2 683.467 436 683.067 444.267 680C448.133 678.533 456.8 673.067 463.333 667.733C489.2 647.2 509.467 636.267 541.333 626C578.667 613.867 600.667 600.8 625.467 576.133C653.6 548 666.533 524.133 678.133 478.933C681.733 464.8 682.667 458.667 682.667 448.4C682.667 436.4 682.267 434.4 674 409.467C668 391.2 664.4 382.267 662.133 380.133C656 374.267 652.133 374.8 617.067 386.533C581.867 398.267 570.933 400.4 556.133 398.533C545.6 397.333 532.267 393.067 525.333 389.067C522.8 387.467 503.467 373.467 482.533 357.733L444.4 329.333H410.267H376V401.867C376 450 375.467 475.733 374.533 478.267C372.8 482.8 367.2 488.933 362.4 491.467C357.333 494.133 325.333 494.133 320.267 491.467C315.467 488.933 309.867 482.8 308.133 478.267C307.067 475.733 306.667 438.8 306.667 363.867C306.667 288.533 306.267 253.333 305.333 253.333C301.733 253.333 269.733 237.6 258.533 230.4C231.867 213.333 212.667 194 193.2 164.8C175.067 137.867 158.933 119.6 138.667 103.2C125.2 92.4 119.6 91.0667 109.467 96.2667Z" fill="#9FA3AF"/>
<path d="M329.333 400.667V472H341.333H353.333V400.667V329.333H341.333H329.333V400.667Z" fill="#9FA3AF"/>
</svg>
