<svg width="14" height="14" viewBox="0 0 14 14" fill="none" xmlns="http://www.w3.org/2000/svg">
<path d="M13.8158 11.2267L8.28315 1.50504C8.03021 1.04656 7.55606 0.777832 7.00277 0.777832C6.44947 0.777832 5.99108 1.04655 5.72238 1.50504L0.18971 11.2267C-0.0632368 11.6851 -0.0632368 12.2384 0.18971 12.6968C0.442658 13.1551 0.916917 13.424 1.45435 13.424L12.5039 13.424C13.0413 13.424 13.5156 13.1553 13.7685 12.6968C14.0688 12.2384 14.0688 11.6851 13.8158 11.2267H13.8158ZM7.80893 11.116L6.33887 11.116V9.83563L7.80893 9.83563V11.116ZM7.80893 9.09264L6.33887 9.09264V5.42528H7.80893V9.09264Z" fill="#E15554"/>
</svg>
